HIERARCHY
ROOT Hips
{
    OFFSET   0.000000   0.000000   0.000000
    CHANNELS 6 Xposition Yposition Zposition Zrotation Xrotation Yrotation
    JOINT Chest
    {
        OFFSET   0.000000   8.007230   0.000000
        CHANNELS 3 Zrotation Xrotation Yrotation
        JOINT Chest2
        {
            OFFSET   0.000000  22.077100   0.000000
            CHANNELS 3 Zrotation Xrotation Yrotation
            JOINT Neck
            {
                OFFSET   0.000000  23.255100   0.000000
                CHANNELS 3 Zrotation Xrotation Yrotation
                JOINT Head
                {
                    OFFSET   0.000000  14.370100   1.956600
                    CHANNELS 3 Zrotation Xrotation Yrotation
                    End Site
                    {
                        OFFSET   0.000000  19.566000   0.000000
                    }
                }
            }
            JOINT LeftCollar
            {
                OFFSET   3.911900  19.017000  -0.467063
                CHANNELS 3 Zrotation Xrotation Yrotation
                JOINT LeftShoulder
                {
                    OFFSET  10.383700   0.000000   0.000000
                    CHANNELS 3 Zrotation Xrotation Yrotation
                    JOINT LeftElbow
                    {
                        OFFSET  26.662100   0.001193   0.000980
                        CHANNELS 3 Zrotation Xrotation Yrotation
                        JOINT LeftWrist
                        {
                            OFFSET  28.869000  -0.000059  -0.000082
                            CHANNELS 3 Zrotation Xrotation Yrotation
                            JOINT LeftFinger0
                            {
                                OFFSET   2.044650  -2.323450   3.252850
                                CHANNELS 3 Zrotation Xrotation Yrotation
                                JOINT LeftFinger01
                                {
                                    OFFSET   3.088130   0.000000   0.000000
                                    CHANNELS 3 Zrotation Xrotation Yrotation
                                    JOINT LeftFinger02
                                    {
                                        OFFSET   2.639460   0.000000   0.000000
                                        CHANNELS 3 Zrotation Xrotation Yrotation
                                        End Site
                                        {
                                            OFFSET   2.582190   0.000000   0.000000
                                        }
                                    }
                                }
                            }
                            JOINT LeftFinger1
                            {
                                OFFSET   8.364480   0.000000   3.252850
                                CHANNELS 3 Zrotation Xrotation Yrotation
                                JOINT LeftFinger11
                                {
                                    OFFSET   4.646930   0.000000   0.000000
                                    CHANNELS 3 Zrotation Xrotation Yrotation
                                    JOINT LeftFinger12
                                    {
                                        OFFSET   2.323470   0.000000   0.000000
                                        CHANNELS 3 Zrotation Xrotation Yrotation
                                        End Site
                                        {
                                            OFFSET   2.273050   0.000000   0.000000
                                        }
                                    }
                                }
                            }
                            JOINT LeftFinger2
                            {
                                OFFSET   8.364490   0.000016   1.078090
                                CHANNELS 3 Zrotation Xrotation Yrotation
                                JOINT LeftFinger21
                                {
                                    OFFSET   5.111610   0.000000   0.000000
                                    CHANNELS 3 Zrotation Xrotation Yrotation
                                    JOINT LeftFinger22
                                    {
                                        OFFSET   2.788150   0.000016   0.000000
                                        CHANNELS 3 Zrotation Xrotation Yrotation
                                        End Site
                                        {
                                            OFFSET   2.727660   0.000000   0.000000
                                        }
                                    }
                                }
                            }
                            JOINT LeftFinger3
                            {
                                OFFSET   7.899780   0.000015  -1.078090
                                CHANNELS 3 Zrotation Xrotation Yrotation
                                JOINT LeftFinger31
                                {
                                    OFFSET   4.646930   0.000000   0.000000
                                    CHANNELS 3 Zrotation Xrotation Yrotation
                                    JOINT LeftFinger32
                                    {
                                        OFFSET   2.323470   0.000000   0.000000
                                        CHANNELS 3 Zrotation Xrotation Yrotation
                                        End Site
                                        {
                                            OFFSET   2.273050   0.000000   0.000000
                                        }
                                    }
                                }
                            }
                            JOINT LeftFinger4
                            {
                                OFFSET   7.435090   0.000000  -3.252850
                                CHANNELS 3 Zrotation Xrotation Yrotation
                                JOINT LeftFinger41
                                {
                                    OFFSET   3.717550   0.000000   0.000000
                                    CHANNELS 3 Zrotation Xrotation Yrotation
                                    JOINT LeftFinger42
                                    {
                                        OFFSET   1.858770   0.000000   0.000000
                                        CHANNELS 3 Zrotation Xrotation Yrotation
                                        End Site
                                        {
                                            OFFSET   1.818440   0.000000   0.000000
                                        }
                                    }
                                }
                            }
                        }
                    }
                }
            }
            JOINT RightCollar
            {
                OFFSET  -3.911910  19.017000  -0.467062
                CHANNELS 3 Zrotation Xrotation Yrotation
                JOINT RightShoulder
                {
                    OFFSET -10.383700   0.000014   0.000000
                    CHANNELS 3 Zrotation Xrotation Yrotation
                    JOINT RightElbow
                    {
                        OFFSET -26.662100   0.001225   0.001091
                        CHANNELS 3 Zrotation Xrotation Yrotation
                        JOINT RightWrist
                        {
                            OFFSET -28.869000  -0.000020  -0.000085
                            CHANNELS 3 Zrotation Xrotation Yrotation
                            JOINT RightFinger0
                            {
                                OFFSET  -2.044650  -2.323490   3.252850
                                CHANNELS 3 Zrotation Xrotation Yrotation
                                JOINT RightFinger01
                                {
                                    OFFSET  -3.088130   0.000000   0.000000
                                    CHANNELS 3 Zrotation Xrotation Yrotation
                                    JOINT RightFinger02
                                    {
                                        OFFSET  -2.639460   0.000000   0.000000
                                        CHANNELS 3 Zrotation Xrotation Yrotation
                                        End Site
                                        {
                                            OFFSET  -2.582190   0.000000   0.000000
                                        }
                                    }
                                }
                            }
                            JOINT RightFinger1
                            {
                                OFFSET  -8.364480   0.000000   3.252850
                                CHANNELS 3 Zrotation Xrotation Yrotation
                                JOINT RightFinger11
                                {
                                    OFFSET  -4.646930   0.000000   0.000000
                                    CHANNELS 3 Zrotation Xrotation Yrotation
                                    JOINT RightFinger12
                                    {
                                        OFFSET  -2.323470   0.000000   0.000000
                                        CHANNELS 3 Zrotation Xrotation Yrotation
                                        End Site
                                        {
                                            OFFSET  -2.273050   0.000000   0.000000
                                        }
                                    }
                                }
                            }
                            JOINT RightFinger2
                            {
                                OFFSET  -8.364480   0.000000   1.078090
                                CHANNELS 3 Zrotation Xrotation Yrotation
                                JOINT RightFinger21
                                {
                                    OFFSET  -5.111620   0.000000   0.000000
                                    CHANNELS 3 Zrotation Xrotation Yrotation
                                    JOINT RightFinger22
                                    {
                                        OFFSET  -2.788160   0.000000   0.000000
                                        CHANNELS 3 Zrotation Xrotation Yrotation
                                        End Site
                                        {
                                            OFFSET  -2.727660   0.000000   0.000000
                                        }
                                    }
                                }
                            }
                            JOINT RightFinger3
                            {
                                OFFSET  -7.899780   0.000000  -1.078090
                                CHANNELS 3 Zrotation Xrotation Yrotation
                                JOINT RightFinger31
                                {
                                    OFFSET  -4.646930   0.000000   0.000000
                                    CHANNELS 3 Zrotation Xrotation Yrotation
                                    JOINT RightFinger32
                                    {
                                        OFFSET  -2.323470   0.000000   0.000000
                                        CHANNELS 3 Zrotation Xrotation Yrotation
                                        End Site
                                        {
                                            OFFSET  -2.273050   0.000000   0.000000
                                        }
                                    }
                                }
                            }
                            JOINT RightFinger4
                            {
                                OFFSET  -7.435090   0.000000  -3.252850
                                CHANNELS 3 Zrotation Xrotation Yrotation
                                JOINT RightFinger41
                                {
                                    OFFSET  -3.717550   0.000000   0.000000
                                    CHANNELS 3 Zrotation Xrotation Yrotation
                                    JOINT RightFinger42
                                    {
                                        OFFSET  -1.858760   0.000000   0.000000
                                        CHANNELS 3 Zrotation Xrotation Yrotation
                                        End Site
                                        {
                                            OFFSET  -1.818440   0.000000   0.000000
                                        }
                                    }
                                }
                            }
                        }
                    }
                }
            }
        }
    }
    JOINT LeftHip
    {
        OFFSET   9.783030   0.000000   0.000000
        CHANNELS 3 Zrotation Xrotation Yrotation
        JOINT LeftKnee
        {
            OFFSET   0.000063 -41.789100   0.000608
            CHANNELS 3 Zrotation Xrotation Yrotation
            JOINT LeftAnkle
            {
                OFFSET   0.000048 -41.133200  -0.000184
                CHANNELS 3 Zrotation Xrotation Yrotation
                JOINT LeftToe
                {
                    OFFSET   0.000000  -6.358960  14.674500
                    CHANNELS 3 Zrotation Xrotation Yrotation
                    End Site
                    {
                        OFFSET   0.000000   0.000000   3.913200
                    }
                }
            }
        }
    }
    JOINT RightHip
    {
        OFFSET  -9.783030   0.000000   0.000000
        CHANNELS 3 Zrotation Xrotation Yrotation
        JOINT RightKnee
        {
            OFFSET   0.000071 -41.789100   0.001239
            CHANNELS 3 Zrotation Xrotation Yrotation
            JOINT RightAnkle
            {
                OFFSET   0.000037 -41.133200  -0.000166
                CHANNELS 3 Zrotation Xrotation Yrotation
                JOINT RightToe
                {
                    OFFSET   0.000000  -6.358960  14.674500
                    CHANNELS 3 Zrotation Xrotation Yrotation
                    End Site
                    {
                        OFFSET   0.000000   0.000000   3.913200
                    }
                }
            }
        }
    }
}
MOTION
Frames: 6
Frame Time:   0.016667
  1.285890  89.438800  -2.354250  -9.799890 -17.764900 -15.831300   0.742571  10.310000  -0.044365   1.535840  20.618600  -0.239968   4.128520   0.490962  -0.035221   6.830450   0.980155  -8.284880  -3.527290   1.143260  -2.665380 -58.954400   7.027400 -57.401200  28.317300 -25.864400 -95.688300   7.666560  57.670000  -8.201280  39.571700  41.702600 -81.048100 -30.498700   1.061970   0.582015  -9.145840   0.537280   0.308425  -2.477630   2.102340 -11.696100  -1.391700  -0.113029   0.069193  -0.989141  -0.119092   0.048295  -6.328400  -0.403710   1.600670  -6.386850  -0.146234   0.251248  -4.167620  -0.165685   0.143325  -5.786120  -1.398870   7.386110  -5.304990  -0.201762   0.327152  -3.210440  -0.227502   0.192072 -12.119700  -7.702250  26.947900 -21.023700  -0.839818   0.278888 -14.036200  -0.587649  -0.009426   7.163100  -0.917227   4.831080  72.769800  18.311000  -0.698967  -0.691392  -8.236090  18.205300 -15.129700  -1.592030   2.148540 -35.555000  25.841400  59.674700  31.644400   0.004764  -0.002885  10.822200   0.000000   0.005982  31.432700   6.074250   9.835920  26.144900   0.002837  -0.000221  18.301400   0.001637   0.000489  28.530200   2.771360   5.083810  38.202400  -0.003362  -0.004358  25.442800  -0.004215  -0.000289  28.149500   2.402630   4.478460  33.747100  -0.002976  -0.001665  22.475600  -0.003021  -0.000865  35.750400   0.060712   0.084206  53.625700  -0.002401  -0.002613  35.714700  -0.006000  -0.002850   3.288580  21.596500   5.884150   0.496962   0.052365  10.639300  -0.308487  -3.506810   7.101920  -0.000000   0.000000   0.000000   6.623950  13.619100  -4.508870  -3.648680  10.731900  -5.140700   1.262810  -5.356640   7.668140  -0.000000   0.000000   0.000000
  1.374090  89.428400  -2.339770  -9.975540 -17.729900 -16.319000   0.791439  10.290400  -0.039205   1.630740  20.579300  -0.231459   4.128580   0.325311  -0.023077   6.787420   0.649138  -6.431480  -3.331570   0.958542  -2.110700 -60.759200   5.417620 -56.790600  26.682600 -23.778100 -93.652700  -4.767010  62.853600   2.580250  46.496300  44.771400 -92.349800 -24.748000   0.134521   0.061790  -7.373430   0.079303  -0.013844   0.666862  -0.330469  -6.547680  -0.393763  -0.021364   0.082249  -0.275609  -0.017599   0.060034  -4.688260  -0.170550   1.935250  -4.749920  -0.045262   0.143218  -3.163430  -0.035711   0.095727  -1.518950   0.048432   5.863710  -1.582090  -0.034102   0.098530  -1.053740  -0.022059   0.071543  -7.121210  -3.749940  27.034700 -12.031200  -0.003451   0.184386  -8.013280  -0.033035   0.150850   7.290900  -0.990344   5.063990  72.785500  17.986000  -0.656277  -0.648226  -8.296000  17.915800 -15.087200  -1.488640   2.125460 -35.506200  25.799100  59.739700  31.567600   0.004774  -0.002901  10.783800   0.000000   0.005986  31.479100   6.101830   9.848290  26.185800   0.002878  -0.000222  18.330000   0.001642   0.000490  28.535000   2.784960   5.106140  38.296800  -0.003359  -0.004360  25.505600  -0.004216  -0.000290  28.161100   2.401590   4.475740  33.837000  -0.002980  -0.001664  22.535500  -0.003020  -0.000852  35.812900   0.045732   0.063274  53.719300  -0.002401  -0.002555  35.777100  -0.006002  -0.002883   3.249310  21.735700   5.930960   0.456460   0.052232  10.742500  -0.268852  -3.623320   7.421760  -0.000000   0.000000   0.000000   6.629690  13.616100  -4.514230  -3.737520  10.785700  -5.004390   1.283380  -5.365250   7.945730  -0.000000   0.000000   0.000000
  1.479950  89.427500  -2.305540 -10.153200 -17.760500 -16.806400   0.849627  10.330600  -0.111488   1.761700  20.658400  -0.389134   4.031180   0.135509  -0.009158   6.612470   0.271409  -4.242590  -2.999330   0.651749  -1.400800 -61.505500   4.980740 -56.180200  28.679800 -23.896100 -90.160500  -3.046930  63.900800   2.577040  46.514700  45.662200 -92.189800 -16.750000   0.003984   0.045385  -3.437990   0.004178   0.002576   5.517630  -0.951450  -6.481610  -0.049168   0.001952   0.037483   0.071873   0.001078   0.027488  -2.008300  -0.043771   0.870988  -2.032140  -0.002042   0.043106  -1.382050   0.000133   0.031738   1.407180   0.180037   5.578300  -0.197769   0.003956   0.010528   0.086637   0.002944   0.013273  -4.971240  -2.439810  26.185900  -8.323450   0.014966   0.060096  -5.543510   0.008020   0.069783   7.422560  -1.111900   5.455440  72.638400  17.914600  -0.582357  -0.591521  -8.510150  17.711200 -14.943000  -1.344170   2.146040 -35.578100  25.930500  59.845800  31.410300   0.004771  -0.002844  10.705100   0.000000   0.005983  31.427300   6.159060   9.954040  26.154000   0.002917  -0.000225  18.307800   0.001649   0.000490  28.524700   2.839270   5.206270  38.230900  -0.003359  -0.004360  25.461800  -0.004215  -0.000291  28.149600   2.439710   4.549110  33.774500  -0.002978  -0.001665  22.493900  -0.003022  -0.000839  35.768500   0.056486   0.078510  53.652700  -0.002402  -0.002498  35.732700  -0.006001  -0.002915   3.178390  21.898000   5.985660   0.423113   0.090085  10.873800  -0.213874  -3.750730   7.708160   0.000000   0.000000   0.000000   6.612580  13.665700  -4.409600  -3.809230  10.853300  -4.858380   1.307950  -5.359710   8.125140  -0.000000   0.000000   0.000000
  1.597440  89.426500  -2.260170 -10.335900 -17.783700 -17.303500   0.927332  10.391600  -0.232306   1.947700  20.778000  -0.655563   3.861090  -0.080663   0.005918   6.348050  -0.160156  -1.929930  -2.678700   0.417112  -0.654923 -61.750700   4.884540 -55.498400  31.488200 -23.647600 -86.606900   0.193315  64.060900   1.894280  46.522700  46.506900 -92.014300  -9.316620  -0.014665   0.040809   0.341675  -0.006554   0.018997   9.216230  -1.135420  -6.472440   0.000067   0.005392  -0.007289   0.121517   0.003826  -0.005059  -0.650026   0.011471  -0.764290  -0.647527   0.007035  -0.015377  -0.431251   0.005354  -0.009933   2.855160   0.203254   5.301950   0.000002   0.009393  -0.014150   0.249553   0.006520  -0.009237  -4.599580  -2.136700  24.915400  -7.603540   0.017597  -0.020441  -5.063980   0.013885  -0.011323   7.546870  -1.235890   5.864660  72.370800  17.904600  -0.501442  -0.534304  -8.747180  17.588200 -14.835800  -1.249260   2.183960 -35.793800  26.121400  59.982900  31.253500   0.004767  -0.002786  10.626700   0.000000   0.005980  31.347400   6.198980  10.052300  26.094600   0.002954  -0.000228  18.266200   0.001656   0.000490  28.513500   2.881910   5.287260  38.105200  -0.003360  -0.004360  25.378100  -0.004214  -0.000292  28.132500   2.477820   4.622480  33.663500  -0.002976  -0.001666  22.419900  -0.003024  -0.000825  35.680200   0.077797   0.108634  53.520200  -0.002402  -0.002443  35.644400  -0.006000  -0.002945   3.095900  22.054000   6.057550   0.389479   0.127901  11.010900  -0.136190  -3.865790   7.986460   0.000000   0.000000   0.000000   6.587960  13.716500  -4.233610  -3.883240  10.919900  -4.686340   1.346270  -5.349550   8.263650   0.000000   0.000000  -0.000000
  1.729690  89.420000  -2.210680 -10.527500 -17.730200 -17.823600   1.034020  10.435000  -0.354076   2.193700  20.861200  -0.932169   3.696320  -0.342113   0.022290   6.074040  -0.684385   0.377227  -2.558980   0.383350  -0.014119 -61.731000   4.669800 -54.743400  33.329000 -24.085700 -84.072700   4.733850  61.843500  -1.451330  48.162000  48.199500 -94.282200  -3.700240  -0.008197   0.034929   3.149840  -0.002570   0.017716  11.262500  -1.436340  -6.952390   0.000059   0.005588  -0.007297   0.060911   0.003969  -0.005057  -0.524038   0.011758  -1.770870  -0.530590   0.006874  -0.009882  -0.353382   0.005536  -0.006427   4.003040   0.212456   4.104160   0.000001   0.009377  -0.007122   0.124777   0.006530  -0.009198  -4.378760  -1.944650  24.087000  -7.215190   0.008740  -0.010574  -4.805330   0.007075  -0.011367   7.656310  -1.320580   6.177350  72.039300  18.026600  -0.421440  -0.579801  -8.829510  17.546500 -14.841000  -1.266770   2.232400 -35.940800  26.269000  59.947600  31.178600   0.004767  -0.002787  10.589300   0.000000   0.005979  31.251500   6.192110  10.055600  26.016100   0.002983  -0.000232  18.211200   0.001669   0.000487  28.502800   2.880880   5.285820  37.931700  -0.003361  -0.004359  25.262600  -0.004217  -0.000294  28.115900   2.477070   4.621690  33.532100  -0.002976  -0.001666  22.332300  -0.003022  -0.000810  35.548700   0.109273   0.152949  53.323300  -0.002402  -0.002390  35.513300  -0.006002  -0.002974   3.021230  22.191400   6.177160   0.357761   0.064426  11.134900  -0.020502  -3.929650   8.264890   0.000000   0.000000   0.000000   6.586030  13.692700  -4.071410  -3.986160  11.006900  -4.443960   1.411060  -5.336270   8.384180   0.000000   0.000000   0.000000
  1.860030  89.409700  -2.154170 -10.719800 -17.641300 -18.346300   1.148190  10.457500  -0.427335   2.439890  20.903700  -1.100220   3.546520  -0.622149   0.038907   5.832890  -1.246290   2.504870  -2.541290   0.378511   0.457965 -61.676000   4.258540 -53.881000  34.281700 -24.668400 -82.748200   9.114440  59.527200  -5.168570  50.697200  49.701300 -97.756200   0.447119  -0.001347   0.030547   5.223550   0.003096   0.015354  11.877800  -1.659090  -7.804610   0.000001   0.005648  -0.007298   0.000000   0.004014  -0.005047  -0.505879   0.012044  -2.632950  -0.513885   0.006366  -0.004302  -0.342259   0.005586  -0.002862   4.410490   0.214026   2.734450  -0.000000   0.009342  -0.000000   0.000001   0.006531  -0.009116  -4.374370  -1.900490  23.372900  -7.159720  -0.000195  -0.000706  -4.768380  -0.000084  -0.011373   7.736730  -1.359190   6.331570  71.747900  18.148500  -0.376391  -0.697664  -8.843810  17.540700 -14.885100  -1.358930   2.263620 -36.020700  26.382600  59.842800  31.155300   0.004767  -0.002790  10.577600   0.000000   0.005979  31.191600   6.163860  10.055600  25.965100   0.003013  -0.000235  18.175600   0.001678   0.000483  28.495800   2.873660   5.275700  37.818100  -0.003362  -0.004358  25.186900  -0.004221  -0.000296  28.105400   2.471870   4.616190  33.449200  -0.002976  -0.001666  22.277100  -0.003020  -0.000794  35.461200   0.130191   0.182377  53.192300  -0.002401  -0.002339  35.426100  -0.006004  -0.003002   2.955450  22.261100   6.302630   0.327073   0.001006  11.247200   0.104166  -3.991160   8.555550  -0.000000   0.000000  -0.000000   6.599690  13.634600  -3.944070  -4.101500  11.061300  -4.175900   1.477550  -5.316530   8.518950  -0.000000   0.000000  -0.000000
